<?xml version="1.0" encoding="UTF-8"?>
<svg width="250px" height="157px" viewBox="0 0 250 157" version="1.1" xmlns="http://www.w3.org/2000/svg" xmlns:xlink="http://www.w3.org/1999/xlink">
    <!-- Generator: Sketch 64 (93537) - https://sketch.com -->
    <title>#30 叉形符号</title>
    <desc>Created with Sketch.</desc>
    <g id="页面-1" stroke="none" stroke-width="1" fill="none" fill-rule="evenodd">
        <g id="画板" transform="translate(-84.000000, -2232.000000)" fill="#E83F28" fill-rule="nonzero">
            <g id="#30-叉形符号" transform="translate(84.000000, 2232.800000)">
                <path d="M227,0 L250,12.4570312 L240.686523,35.2011719 L184.512,53.956 L241.645508,73.0429688 L250,95.5595703 L227.776367,108.138672 L125,73.825 L22.2236328,108.138672 L0,95.5595703 L8.35449219,73.0429688 L65.488,53.956 L9.31347656,35.2011719 L0,12.4570312 L23,0 L125,34.075 L227,0 Z M236.078,17.426 L225.958,11.945 L125,45.6725784 L24.041,11.945 L13.921,17.426 L17.582,26.365 L100.213203,53.9527281 L16.835,81.807 L13.572,90.601 L23.382,96.154 L125,62.228123 L226.617,96.154 L236.427,90.601 L233.164,81.807 L149.786797,53.9527281 L232.417,26.365 L236.078,17.426 Z" id="形状结合"></path>
                <path d="M121.426758,82 L241.645508,120.761405 L250,143.278006 L227.776367,155.857108 L122.388,121.558 L22.2236328,155.857108 L4.68958206e-13,143.278006 L8.35449219,120.761405 L121.426758,82 Z M121.532,93.591 L16.853,129.475 L13.571,138.32 L23.338,143.848 L122.299453,109.961279 L226.573,143.898 L236.428,138.32 L233.189,129.592 L121.532,93.591 Z" id="形状结合"></path>
            </g>
        </g>
    </g>
</svg>