<?xml version="1.0" encoding="UTF-8"?>
<svg width="18px" height="17px" viewBox="0 0 18 17" version="1.1" xmlns="http://www.w3.org/2000/svg" xmlns:xlink="http://www.w3.org/1999/xlink">
    <title>决策管理</title>
    <g id="页面-1" stroke="none" stroke-width="1" fill="none" fill-rule="evenodd">
        <g id="S4-更改密码-" transform="translate(-22.000000, -314.000000)" fill="#000000" fill-rule="nonzero">
            <g id="决策管理" transform="translate(22.000000, 314.000000)">
                <path d="M8.66647071,0 C10.139261,0 11.3331934,1.1939324 11.3331934,2.66672265 L11.3278599,2.49738577 C14.3750109,3.68440079 16.2685515,6.74495417 15.9706241,10.0015433 L14.6292626,10.0015433 C14.9223446,7.38569319 13.4766756,4.88415595 11.0638544,3.83208045 C10.6188992,4.75160554 9.68732815,5.3357276 8.66580403,5.3357276 C7.64427991,5.3357276 6.71270889,4.75160554 6.26775368,3.83208045 C3.6221186,4.98546936 2.1724724,7.85899525 2.81701457,10.6722241 C3.65470107,10.7178825 4.42188401,11.155652 4.88735968,11.8536031 C5.35283536,12.5515542 5.462164,13.428058 5.18239756,14.2189652 C6.19820149,14.946547 7.41698083,15.3364818 8.66647071,15.3336553 C9.62515751,15.3336553 10.5305098,15.1083172 11.3345267,14.7096422 L11.3345267,16.1670061 C10.4841603,16.4986795 9.57922957,16.6682692 8.66647071,16.6670246 C7.15209398,16.6692666 5.67450029,16.2004999 4.43838194,15.3256551 C3.65986338,16.0176596 2.54969192,16.1930439 1.59576586,15.7747301 C0.641839805,15.3564162 0.0187831675,14.4209801 0.000416960083,13.3795273 C-0.0179492473,12.3380744 0.571737061,11.3812513 1.51032047,10.9295628 C0.721894176,7.39431436 2.63160035,3.81276577 6.00641486,2.49738577 C6.09573046,1.09367699 7.25992347,0.0006777391 8.66647071,0 Z M17.3333193,14.0002939 C17.7015169,14.0002939 18,14.298777 18,14.6669746 C18,15.0351722 17.7015169,15.3336553 17.3333193,15.3336553 L13.3332354,15.3336553 C12.9650378,15.3336553 12.6665547,15.0351722 12.6665547,14.6669746 C12.6665547,14.298777 12.9650378,14.0002939 13.3332354,14.0002939 L17.3333193,14.0002939 Z M17.3333193,11.3335713 C17.7015169,11.3335713 18,11.6320544 18,12.0002519 C18,12.3684495 17.7015169,12.6669326 17.3333193,12.6669326 L13.3332354,12.6669326 C12.9650378,12.6669326 12.6665547,12.3684495 12.6665547,12.0002519 C12.6665547,11.6320544 12.9650378,11.3335713 13.3332354,11.3335713 L17.3333193,11.3335713 Z" id="形状"></path>
            </g>
        </g>
    </g>
</svg>