<?xml version="1.0" standalone="no"?><!DOCTYPE svg PUBLIC "-//W3C//DTD SVG 1.1//EN" "http://www.w3.org/Graphics/SVG/1.1/DTD/svg11.dtd"><svg t="1604560271783" class="icon" viewBox="0 0 1024 1024" version="1.1" xmlns="http://www.w3.org/2000/svg" p-id="927" xmlns:xlink="http://www.w3.org/1999/xlink" width="200" height="200"><defs><style type="text/css"></style></defs><path d="M855.02976 68.25984H168.97024c-56.53504 0-102.4 45.85472-102.4 102.4v686.08c0 56.55552 45.86496 102.4 102.4 102.4h686.05952c56.55552 0 102.4-45.84448 102.4-102.4v-686.08c0-56.54528-45.84448-102.4-102.4-102.4z m30.72 788.48c0 16.93696-13.78304 30.72-30.72 30.72H168.97024c-16.93696 0-30.72-13.78304-30.72-30.72v-686.08c0-16.93696 13.78304-30.72 30.72-30.72h686.05952c16.93696 0 30.72 13.78304 30.72 30.72v686.08z" fill="#ffffff" p-id="928"></path><path d="M656.83456 607.83616l-94.12608-94.13632 94.12608-94.13632a35.84 35.84 0 0 0-50.688-50.67776l-94.12608 94.13632-94.13632-94.13632a35.82976 35.82976 0 1 0-50.67776 50.67776l94.11584 94.13632-94.11584 94.13632a35.82976 35.82976 0 1 0 50.67776 50.67776l94.13632-94.13632 94.12608 94.13632a35.84 35.84 0 0 0 50.688-50.67776z" fill="#ffffff" p-id="929"></path></svg>