<?xml version="1.0" encoding="UTF-8"?>
<svg width="15px" height="15px" viewBox="0 0 15 15" version="1.1" xmlns="http://www.w3.org/2000/svg" xmlns:xlink="http://www.w3.org/1999/xlink">
    <!-- Generator: Sketch 64 (93537) - https://sketch.com -->
    <title>编组 3</title>
    <desc>Created with Sketch.</desc>
    <g id="页面-1" stroke="none" stroke-width="1" fill="none" fill-rule="evenodd">
        <g id="段视角页面" transform="translate(-2050.000000, -1245.000000)">
            <g id="编组-3" transform="translate(2050.000000, 1245.000000)">
                <g id="编组备份-3" fill="#333333" stroke="#F4F4F4" stroke-width="1.5">
                    <circle id="椭圆形" cx="7.5" cy="7.5" r="6.75"></circle>
                </g>
                <g id="箭头(1)备份" transform="translate(7.500000, 7.500000) rotate(90.000000) translate(-7.500000, -7.500000) translate(3.000000, 3.000000)" fill="#FF0000" fill-rule="nonzero">
                    <path d="M8.97985075,4.5 C8.97985075,4.6141791 8.97985075,4.8358209 8.86567164,4.95 L8.07985075,5.7358209 L4.95,8.86567164 C4.8358209,8.97985075 4.6141791,8.97985075 4.5,8.97985075 C4.3858209,8.97985075 4.1641791,8.97985075 4.05,8.86567164 L3.2641791,8.07985075 C3.15,7.96567164 3.15,7.85820896 3.15,7.62985075 C3.15,7.51567164 3.2641791,7.29402985 3.2641791,7.17985075 L4.94328358,5.61492537 L0.57761194,5.61492537 C0.241791045,5.61492537 0.0201492537,5.39328358 0.0201492537,5.05746269 L0.0201492537,3.94253731 C0.0201492537,3.60671642 0.241791045,3.38507463 0.57761194,3.38507463 L4.94328358,3.38507463 L3.2641791,1.70597015 C3.15,1.59179104 3.15,1.48432836 3.15,1.37014925 C3.15,1.25597015 3.15,1.03432836 3.2641791,0.920149254 L4.05,0.134328358 C4.1641791,0.0201492537 4.3858209,0.0201492537 4.5,0.0201492537 C4.6141791,0.0201492537 4.8358209,0.0201492537 4.95,0.134328358 L8.08656716,3.27089552 L8.86567164,4.05 C8.97985075,4.1641791 8.97985075,4.3858209 8.97985075,4.5 Z" id="路径" transform="translate(4.500000, 4.500000) rotate(-90.000000) translate(-4.500000, -4.500000) "></path>
                </g>
            </g>
        </g>
    </g>
</svg>