<?xml version="1.0" encoding="UTF-8"?>
<svg width="18px" height="18px" viewBox="0 0 18 18" version="1.1" xmlns="http://www.w3.org/2000/svg" xmlns:xlink="http://www.w3.org/1999/xlink">
    <title>系统配置(1)</title>
    <g id="页面-1" stroke="none" stroke-width="1" fill="none" fill-rule="evenodd">
        <g id="S4-更改密码-" transform="translate(-22.000000, -498.000000)" fill="#000000" fill-rule="nonzero">
            <g id="系统配置(1)" transform="translate(22.000000, 498.000000)">
                <path d="M9.00160705,17.9910557 L6.9444495,17.9910557 C6.20524804,17.9910557 5.64941438,17.4333119 5.64941438,16.6960205 L5.64941438,15.225258 C5.53480951,15.1660454 5.42020463,15.1068329 5.31133,15.0457103 L4.01056464,15.8555848 C3.38978822,16.165018 2.68305814,15.9720997 2.29149148,15.3837947 L2.26284026,15.3379528 L0.22096336,11.7641907 C-0.00251615125,11.4146458 -0.0598185899,11.0116186 0.0643366939,10.6525234 C0.175121409,10.3316297 0.417701732,10.0756788 0.742415552,9.93624287 L1.95531717,9.17794059 L1.95531717,8.81311507 L0.742415552,8.0548128 C0.417701732,7.91537686 0.175121409,7.65942597 0.0643366939,7.33662223 C-0.0579085086,6.97752695 -0.000606069964,6.5744998 0.22096336,6.22495492 L2.25519993,2.6645634 C2.40609635,2.37996129 2.67541782,2.16985234 2.99631147,2.08389869 C3.36304708,1.98648454 3.75461374,2.05715755 4.09460821,2.2863673 L5.28840902,3.03320909 C5.40110382,2.960626 5.52143894,2.88995299 5.64941438,2.82310015 L5.64941438,1.29503511 C5.64941438,0.555833655 6.20715812,0 6.9444495,0 L11.0492142,0 C11.7884156,0 12.3442493,0.557743736 12.3442493,1.29503511 L12.3442493,2.76388763 C12.4588542,2.82310015 12.571549,2.88231267 12.6823337,2.94343527 L13.983099,2.1335608 C14.6038755,1.82412763 15.3106055,2.01704584 15.7021722,2.60535088 L15.7308234,2.65119283 L17.7727003,6.22495492 C17.9961798,6.5744998 18.0534823,6.97752695 17.929327,7.33662223 C17.8185423,7.65751589 17.575962,7.91346678 17.2512481,8.05290272 L16.0383465,8.81120499 L16.0383465,9.00221312 C16.0383465,9.43389149 15.6888016,9.78534644 15.2552132,9.78534644 C14.8216247,9.78534644 14.4720799,9.43580157 14.4720799,9.00221312 L14.4720799,7.94402808 L16.2981176,6.80179947 L14.498821,3.65016534 L12.6746934,4.79048387 L12.2544755,4.50970192 C11.9870641,4.33206436 11.5916773,4.13341591 11.209661,3.94240778 L10.7818028,3.7265686 L10.7818028,1.56244649 L7.21377096,1.56244649 L7.21377096,3.95768843 L6.62164576,4.10667477 C6.40389649,4.16206713 6.11165406,4.36071558 5.87671406,4.52116241 L5.31706024,4.89553834 L3.45091082,3.7265686 L1.69363603,6.80179947 L3.51967375,7.94402808 L3.51967375,10.0432074 L1.69363603,11.185436 L3.49293261,14.3370702 L5.31706024,13.1967516 L5.73727812,13.4775336 C6.0046895,13.6551711 6.40007633,13.8538196 6.78209259,14.0448277 L7.21377096,14.2606669 L7.21377096,16.4266991 L8.99969697,16.4266991 C9.43137534,16.4266991 9.78283029,16.776244 9.78283029,17.2098324 C9.78283029,17.6434209 9.43328542,17.9910557 9.00160705,17.9910557 Z" id="路径"></path>
                <path d="M8.99778688,7.43021622 C9.86114363,7.43021622 10.5621435,8.13121605 10.5621435,8.99457279 C10.5621435,9.85792953 9.86114363,10.5589294 8.99778688,10.5589294 C8.13443014,10.5589294 7.43343031,9.85792953 7.43343031,8.99457279 C7.43343031,8.13121605 8.13443014,7.43021622 8.99778688,7.43021622 M8.99778688,5.86394956 C7.26916332,5.86394956 5.86907373,7.26594922 5.86907373,8.99266271 C5.86907373,10.7193762 7.2710734,12.1213759 8.99778688,12.1213759 C10.7264105,12.1213759 12.1265,10.7193762 12.1265,8.99266271 C12.1265,7.26594922 10.7264105,5.86394956 8.99778688,5.86394956 L8.99778688,5.86394956 Z M12.5218869,16.4343394 L17.2168667,16.4343394 C17.646635,16.4343394 18,16.7857944 18,17.2174727 C18,17.647241 17.648545,18.0006061 17.2168667,18.0006061 L12.5218869,18.0006061 C12.0921186,18.0006061 11.7387535,17.6491511 11.7387535,17.2174727 C11.7387535,16.7877045 12.0921186,16.4343394 12.5218869,16.4343394 Z M12.5218869,13.6971929 L17.2168667,13.6971929 C17.646635,13.6971929 18,14.0486479 18,14.4803263 C18,14.9100945 17.648545,15.2634596 17.2168667,15.2634596 L12.5218869,15.2634596 C12.0921186,15.2634596 11.7387535,14.9120046 11.7387535,14.4803263 C11.7387535,14.0486479 12.0921186,13.6971929 12.5218869,13.6971929 Z M12.5218869,10.9581364 L17.2168667,10.9581364 C17.646635,10.9581364 18,11.3095913 18,11.7412697 C18,12.171038 17.648545,12.524403 17.2168667,12.524403 L12.5218869,12.524403 C12.0921186,12.524403 11.7387535,12.1729481 11.7387535,11.7412697 C11.7387535,11.3115014 12.0921186,10.9581364 12.5218869,10.9581364 Z" id="形状"></path>
            </g>
        </g>
    </g>
</svg>